<?xml version="1.0" encoding="UTF-8"?>
<svg id="Capa_1" xmlns="http://www.w3.org/2000/svg" version="1.1" viewBox="0 0 39 39">
  <!-- Generator: Adobe Illustrator 29.4.0, SVG Export Plug-In . SVG Version: 2.1.0 Build 152)  -->
  <defs>
    <style>
      .st0 {
        fill: #fff;
      }
    </style>
  </defs>
  <path id="Trazado_23" class="st0" d="M16.3,18.1c.3-.3.4-.7.4-1.1,0-.4-.1-.8-.4-1.1-.2-.3-.6-.4-1-.4h-3.3v3.1h3.2c.4,0,.7-.1,1-.4"/>
  <path id="Trazado_24" class="st0" d="M16.8,20.9c-.1-.1-.3-.3-.4-.4-.2,0-.4-.1-.6-.1h-3.6v3.2h3.5c.2,0,.4,0,.6-.1.2,0,.3-.2.5-.3.3-.3.4-.7.4-1.1,0-.2,0-.4-.1-.6,0-.2-.2-.4-.3-.5"/>
  <path id="Trazado_25" class="st0" d="M19.5.5C9,.5.5,9,.5,19.5s8.5,19,19,19,19-8.5,19-19S30,.5,19.5.5h0M21.8,14h5.8v1.4h-5.8v-1.4ZM19.3,23.8c-.2.4-.5.7-.8,1-.4.3-.8.5-1.2.6-.5.1-1,.2-1.5.2h-5.9v-12.2h6.5c.4,0,.8,0,1.1.3.3.2.6.4.9.7.2.3.4.6.6,1,.3.9.2,1.9-.2,2.8-.3.5-.8.9-1.3,1.2.7.2,1.2.6,1.7,1.1.4.6.6,1.3.6,2,0,.5,0,.9-.3,1.4M29.2,21.8h-6.7c0,.3.1.6.2.9.1.3.3.5.5.7.2.2.5.3.7.4.3,0,.5.1.8.1.4,0,.9-.1,1.3-.3.4-.2.6-.5.8-.9l1.9.5c-.3.7-.9,1.3-1.5,1.6-.8.4-1.6.7-2.5.6-.6,0-1.3-.1-1.9-.4-1.1-.4-1.9-1.3-2.4-2.4-.2-.5-.3-1.1-.3-1.7,0-.6.1-1.2.3-1.8.4-1.1,1.3-2,2.4-2.4.6-.2,1.3-.4,1.9-.4.7,0,1.3.1,1.9.4,1.7.8,2.8,2.6,2.6,4.5,0,.1,0,.2,0,.3"/>
  <path id="Trazado_26" class="st0" d="M24.7,18.2c-.3,0-.6,0-.8.2-.3.1-.5.3-.7.4-.2.2-.4.4-.5.7-.1.3-.2.6-.2.9h4.5c0-.6-.3-1.2-.7-1.6-.4-.4-1-.6-1.6-.6"/>
  <path id="Trazado_27" class="st0" d="M26.9,20.3"/>
</svg>