<?xml version="1.0" encoding="UTF-8"?>
<svg id="Capa_1" xmlns="http://www.w3.org/2000/svg" version="1.1" viewBox="0 0 347.1 47.6">
  <!-- Generator: Adobe Illustrator 29.4.0, SVG Export Plug-In . SVG Version: 2.1.0 Build 152)  -->
  <defs>
    <style>
      .st0 {
        fill: #868589;
      }
    </style>
  </defs>
  <g id="Grupo_3">
    <path id="Trazado_2" class="st0" d="M63.8,8.3c.4,0,.9.1,1.3.3.4.2.8.5,1,.8l10.4,16h-2.1c0,0,10.7-16,10.7-16,.5-.7,1.2-1.2,2.1-1.2.7,0,1.3.3,1.8.7.5.5.8,1.2.8,1.9v24.8c0,1.4-1.1,2.6-2.4,2.6,0,0-.1,0-.2,0-.7,0-1.4-.2-2-.8-.5-.5-.8-1.2-.8-1.9V15.5l1.7.4-8.7,13.3c-.3.3-.6.6-1,.8-.4.2-.8.3-1.2.3-.4,0-.8,0-1.1-.3-.4-.2-.7-.5-1-.8l-8.2-12.9,1.1-2.3v21.7c0,.7-.2,1.4-.7,1.9-.5.5-1.1.8-1.8.8-.7,0-1.3-.3-1.8-.8-.5-.5-.7-1.2-.7-1.9V10.9c0-.7.3-1.4.8-1.8.5-.5,1.2-.8,1.9-.8"/>
    <path id="Trazado_3" class="st0" d="M99.3,38.3c-.8,0-1.5-.3-2.1-.8-.6-.4-.9-1.1-.9-1.9V10.9c0-1.4,1.1-2.6,2.5-2.6,0,0,0,0,.1,0h12.3c1.5,0,2.9.4,4.2,1.2,1.3.8,2.4,1.9,3.2,3.3.8,1.5,1.2,3.1,1.2,4.8,0,1.1-.2,2.2-.7,3.2-.4,1-1,2-1.8,2.8-.7.8-1.6,1.5-2.6,1.9v-1c.8.4,1.5.9,2,1.5.5.6.9,1.2,1.2,1.9.3.7.5,1.4.5,2.2.1.7.2,1.3.2,1.9,0,.5.1.9.3,1.4.1.4.4.7.8.9.6.3,1,.9,1.2,1.6.2.7,0,1.4-.5,1.9-.3.4-.7.6-1.2.7-.5.1-1,.1-1.5,0-.4,0-.8-.2-1.2-.4-.6-.3-1-.8-1.5-1.3-.5-.7-.9-1.4-1.2-2.2-.3-1.2-.5-2.4-.5-3.6,0-.5,0-.9-.3-1.4-.3-.9-1.1-1.5-1.9-1.8-.6-.2-1.1-.2-1.7-.2h-8.7l.6-1v9.3c0,.7-.2,1.3-.6,1.9-.4.5-1,.8-1.7.8M101,23h10c.6,0,1.1-.3,1.5-.7.5-.5.9-1.2,1.2-1.9.3-.9.5-1.8.5-2.7,0-1.1-.3-2.2-1-3.1-.5-.7-1.3-1.2-2.2-1.3h-9.9l.5-1.4v12.1l-.6-1Z"/>
    <path id="Trazado_4" class="st0" d="M127.5,38.3c-1.3.1-2.4-.8-2.6-2,0-.2,0-.4,0-.5v-.7c-.1-1.3.8-2.4,2-2.6.2,0,.4,0,.5,0h.6c1.3-.1,2.4.8,2.6,2,0,.2,0,.4,0,.5v.7c.1,1.3-.8,2.4-2,2.6-.2,0-.4,0-.5,0h-.6Z"/>
    <path id="Trazado_5" class="st0" d="M159.6,10.8c.2.1.3.3.4.6,0,.2,0,.5-.2.7-.1.2-.3.3-.5.3-.2,0-.4,0-.6-.1-1.2-.8-2.5-1.5-3.9-2-1.5-.5-3-.7-4.5-.7-1.8,0-3.5.3-5.1,1-1.6.7-3,1.6-4.2,2.9-1.2,1.3-2.2,2.7-2.8,4.4-.7,1.8-1.1,3.7-1,5.6,0,1.9.3,3.8,1,5.6.6,1.6,1.6,3.1,2.8,4.4,1.2,1.2,2.6,2.2,4.2,2.9,1.6.7,3.4,1,5.1,1,1.5,0,3.1-.2,4.5-.7,1.4-.5,2.7-1.1,3.9-1.9.2-.1.4-.2.6-.2.2,0,.4.2.6.3.1.2.2.4.2.6,0,.2-.2.4-.3.6-.8.6-1.7,1-2.6,1.4-1.1.5-2.2.8-3.3,1.1-1.2.3-2.3.4-3.5.4-2,0-4-.4-5.8-1.2-1.8-.8-3.4-1.9-4.8-3.2-1.4-1.4-2.5-3.1-3.2-4.9-.8-2-1.2-4-1.2-6.2,0-2.1.4-4.2,1.2-6.2.8-1.8,1.9-3.5,3.2-4.9,1.4-1.4,3-2.5,4.8-3.2,1.8-.8,3.8-1.2,5.8-1.2,1.7,0,3.4.3,5,.8,1.6.5,3,1.2,4.4,2.1"/>
    <path id="Trazado_6" class="st0" d="M166.7,8.3h16.2c.5,0,.8.4.9.9,0,.2,0,.5-.3.6-.2.2-.4.2-.6.2h-15.7l.4-.7v13.3l-.5-.6h13.8c.5,0,.8.4.9.9,0,.2,0,.5-.3.6-.2.2-.4.2-.6.2h-13.7l.4-.5v13.6l-.2-.2h15.4c.5,0,.8.4.9.9,0,.2,0,.5-.3.6-.2.2-.4.2-.6.2h-16.2c-.5,0-.8-.4-.9-.9V9.2c0-.5.4-.8.9-.9"/>
    <path id="Trazado_7" class="st0" d="M191,38.3c-.5,0-.9-.3-.9-.8,0,0,0,0,0,0V9.2c0-.5.4-.8.9-.9h11.3c1.5,0,3.1.3,4.4,1,2.5,1.3,4.1,3.9,4,6.8,0,1.2-.2,2.4-.7,3.6-.4,1-1.1,1.9-2,2.6-.8.7-1.8,1.2-2.9,1.5l-2-.3c1.1,0,2.3.3,3.3.9,1.1.6,1.9,1.5,2.5,2.6.7,1.3,1,2.7,1,4.1,0,1.1,0,2.1.2,3.2,0,.6.2,1.1.5,1.6.2.3.4.6.8.8.2.1.3.3.4.4,0,.2.1.4,0,.6,0,.2-.1.3-.3.4-.1,0-.3.2-.4.2-.2,0-.3,0-.5,0-.5-.3-.8-.6-1.2-1-.5-.6-.8-1.3-1-2.1-.3-1.3-.4-2.7-.4-4,0-1.1-.2-2.2-.6-3.2-.4-.7-.9-1.4-1.6-1.8-.6-.4-1.3-.7-2.1-.9-.7-.1-1.3-.2-2-.2h-10.4l.4-.5v13.1c0,.2,0,.4-.3.6-.2.2-.4.3-.6.3M191.5,23.2h11c1.1-.1,2.2-.5,3.2-1,1-.6,1.8-1.4,2.4-2.4.6-1.1,1-2.4.9-3.6,0-1.7-.6-3.2-1.9-4.3-1.4-1.2-3.2-1.8-5-1.7h-10.4l.2-.3v13.9l-.4-.5Z"/>
    <path id="Trazado_8" class="st0" d="M228.3,10.5l-10.8,27.3c-.1.3-.4.6-.8.6-.2,0-.5,0-.6-.2-.1-.1-.2-.3-.3-.5,0-.1,0-.3,0-.4l11.5-28.4c0-.2.2-.3.3-.4.2,0,.3-.1.5-.1.2,0,.4,0,.6.2.1,0,.2.2.3.4l11.5,28.4c0,.1,0,.2,0,.3,0,.2,0,.5-.3.6-.2.1-.4.2-.6.2-.2,0-.4,0-.5-.1-.2,0-.3-.2-.3-.4l-11.2-27.6.6.3ZM220.4,29l.6-1.7h13.9l.4,1.7h-14.9ZM228.4,6.3c-.2,0-.3,0-.4-.2,0-.1-.1-.2-.1-.3,0-.1,0-.3.1-.4,0-.1.2-.2.3-.3l3.9-2.9c.1,0,.3-.2.4-.2.2,0,.4-.1.5-.1.3,0,.6,0,.8.3.2.2.2.5.2.7,0,.2,0,.4-.2.6-.1.2-.3.3-.4.4l-4.2,2c-.1,0-.2.1-.4.2-.2,0-.3.1-.5.1"/>
    <path id="Trazado_9" class="st0" d="M247.2,8.3c.1,0,.3,0,.4,0,.2,0,.3.2.4.3l12.3,18.3h-.9l12.3-18.3c.2-.3.5-.4.8-.4.2,0,.4.1.6.3.1.2.2.4.2.6v28.3c0,.2-.1.5-.3.6-.2.2-.4.3-.6.3-.2,0-.5,0-.6-.3-.2-.2-.3-.4-.3-.6V11.1h.5l-11.5,17.5c0,.1-.1.2-.2.3-.1,0-.2,0-.4,0-.1,0-.3,0-.4,0-.1,0-.2-.1-.3-.3l-11.8-17.8h.7v26.7c0,.5-.4.8-.9.9-.2,0-.5,0-.6-.3-.2-.2-.2-.4-.2-.6V9.2c0-.2,0-.4.2-.6.1-.2.4-.3.6-.3"/>
    <path id="Trazado_10" class="st0" d="M283.8,37.4c0,.2-.1.5-.3.6-.2.2-.4.3-.6.3-.2,0-.5,0-.7-.3-.2-.2-.2-.4-.2-.6V9.2c0-.5.4-.9.9-.9s.9.4.9.9v28.2Z"/>
    <path id="Trazado_11" class="st0" d="M314.5,10.8c.2.1.3.3.4.6,0,.2,0,.5-.2.7-.1.2-.3.3-.5.3-.2,0-.4,0-.6-.1-1.2-.8-2.5-1.5-3.9-2-1.5-.5-3-.7-4.5-.7-1.8,0-3.5.3-5.1,1-1.6.7-3,1.6-4.2,2.9-1.2,1.3-2.2,2.7-2.8,4.4-.7,1.8-1.1,3.7-1,5.6,0,1.9.3,3.8,1,5.6.6,1.6,1.6,3.1,2.8,4.4,1.2,1.2,2.6,2.2,4.2,2.9,1.6.7,3.4,1,5.1,1,1.5,0,3.1-.2,4.5-.7,1.4-.5,2.7-1.1,3.9-1.9.2-.1.4-.2.6-.2.2,0,.4.2.6.3.1.2.2.4.2.6,0,.2-.2.4-.3.6-.8.6-1.7,1-2.6,1.4-1.1.5-2.2.8-3.3,1.1-1.2.3-2.3.4-3.5.4-2,0-4-.4-5.8-1.2-1.8-.8-3.4-1.9-4.8-3.2-1.4-1.4-2.5-3.1-3.2-4.9-.8-2-1.2-4-1.2-6.2,0-2.1.4-4.2,1.2-6.2.8-1.8,1.9-3.5,3.2-4.9,1.4-1.4,3-2.5,4.8-3.2,1.8-.8,3.8-1.2,5.8-1.2,1.7,0,3.4.3,5,.8,1.6.5,3,1.2,4.4,2.1"/>
    <path id="Trazado_12" class="st0" d="M330.5,10.5l-10.8,27.3c-.1.3-.4.6-.8.6-.2,0-.5,0-.6-.2-.1-.1-.2-.3-.3-.5,0-.1,0-.3,0-.4l11.5-28.4c0-.2.2-.3.3-.4.2,0,.3-.1.5-.1.2,0,.4,0,.6.2.1,0,.2.2.3.4l11.5,28.4c0,.1,0,.2,0,.3,0,.2,0,.5-.3.6-.2.1-.4.2-.6.2-.2,0-.4,0-.5-.1-.2,0-.3-.2-.3-.4l-11.2-27.6.6.3ZM322.5,29l.6-1.7h13.9l.4,1.7h-14.9Z"/>
    <path id="Trazado_13" class="st0" d="M45.8,26.5c-.2-.1-.4-.1-.5,0,0,0,0,0,0,0-2.7,3.1-6.9,4.5-10.9,3.5-2.4-.6-4.6-2.1-6.1-4.2,5,3.9,12.2,3,16.1-2,.5-.6.9-1.3,1.3-2.1,0-.2,0-.4-.2-.5-.2,0-.4,0-.5.2-2.6,5.3-9,7.6-14.3,5-.8-.4-1.5-.9-2.2-1.4,1.4.6,3,1,4.6,1,1,0,1.9-.1,2.9-.4,4.3-1.1,7.5-4.5,8.4-8.8,0-.2-.1-.4-.3-.4-.2,0-.4,0-.4.3-1.2,5.8-6.8,9.6-12.6,8.4-.9-.2-1.7-.5-2.5-.8.6.1,1.2.2,1.8.2,6.3,0,11.5-5.1,11.5-11.5,0-.2,0-.4,0-.6,0-.2-.2-.4-.4-.4s-.4.2-.4.4c.3,5.9-4.2,11-10.1,11.3-.9,0-1.8,0-2.7-.2,6.3-.6,11-6.1,10.4-12.5,0-.8-.2-1.6-.5-2.4,0-.2-.3-.3-.5-.2-.2,0-.3.3-.2.5,1.2,3.9,0,8.2-2.9,11-1.8,1.7-4.2,2.8-6.8,2.9,6-2.1,9.1-8.7,7-14.6-.3-.8-.6-1.5-1.1-2.2-.1-.2-.3-.2-.5-.1-.2.1-.2.3-.1.5,3.1,5,1.6,11.6-3.5,14.8-.8.5-1.6.8-2.4,1.1,5.3-3.5,6.6-10.7,3.1-15.9-.5-.7-1-1.3-1.6-1.9-.1-.1-.4-.2-.5,0-.1.1-.2.4,0,.5,0,0,0,0,0,0,4.3,4.1,4.4,10.9.3,15.2-.6.6-1.3,1.2-2.1,1.7,4.2-4.7,3.8-12-.9-16.2-.6-.5-1.3-1-2-1.4-.2,0-.4,0-.5.2,0,.2,0,.4.1.5,5.2,2.9,7,9.5,4.1,14.6-.4.8-1,1.5-1.6,2.1,2.9-5.6.7-12.5-4.9-15.4-.7-.4-1.5-.7-2.3-.9-.2,0-.4,0-.5.3,0,.2,0,.4.3.5,5.7,1.5,9.1,7.4,7.6,13.1-.2.9-.6,1.7-1,2.5,1.4-6.2-2.5-12.3-8.6-13.7-.8-.2-1.6-.3-2.4-.3h0c-.2,0-.4.2-.4.4,0,.2.2.4.4.4,5.9,0,10.7,4.9,10.6,10.9,0,.9-.1,1.8-.4,2.6-.2-6.3-5.4-11.3-11.8-11.2-.8,0-1.6.1-2.4.3-.2,0-.3.2-.3.4,0,.2.2.3.4.3,0,0,0,0,0,0,4-1,8.2.4,10.8,3.6,1.6,1.9,2.5,4.4,2.5,6.9-1.7-6.1-8.1-9.6-14.2-7.9-.8.2-1.6.5-2.3.9-.2,0-.2.3-.2.5,0,.2.3.2.5.2h0c5.2-2.8,11.7-.8,14.5,4.4.4.8.7,1.6,1,2.5-3.2-5.5-10.2-7.3-15.7-4.1-.7.4-1.4.9-2,1.5-.2.1-.2.4,0,.5s.4.2.5,0c0,0,0,0,0,0,4.4-4,11.1-3.7,15.2.6.6.7,1.1,1.4,1.5,2.2-4.5-4.5-11.7-4.5-16.2,0-.6.6-1.1,1.2-1.5,1.9-.1.2,0,.4.1.5.2.1.4,0,.5-.1h0c3.2-5,9.9-6.4,14.8-3.1.7.5,1.4,1.1,2,1.7-5.4-3.3-12.5-1.5-15.7,4-.4.7-.8,1.5-1,2.2,0,.2,0,.4.2.5,0,0,0,0,0,0,0,0,0,0,.1,0,.2,0,.3-.1.4-.3,1.3-3.9,4.7-6.7,8.8-7.2,2.5-.3,5,.3,7.2,1.6-6.1-1.8-12.4,1.7-14.2,7.7-.2.8-.4,1.6-.4,2.4,0,.2.1.4.3.4h0s0,0,0,0c.2,0,.4-.2.4-.3.4-5.9,5.6-10.3,11.5-9.9.9,0,1.8.2,2.6.5-6.3-.2-11.6,4.7-11.9,11,0,.8,0,1.6.2,2.4,0,.2.2.3.4.3,0,0,0,0,0,0,.2,0,.3-.2.3-.4,0,0,0,0,0,0-.7-4,.9-8.1,4.2-10.6,2-1.5,4.6-2.2,7.1-2-6.2,1.4-10.1,7.5-8.8,13.6.2.8.4,1.6.8,2.3,0,.2.3.3.5.2.2,0,.3-.3.2-.5,0,0,0,0,0,0-1.7-3.7-1.1-8.1,1.5-11.3,1.6-2,3.9-3.3,6.3-3.7-5.7,2.8-7.9,9.7-5.1,15.4.4.7.8,1.4,1.3,2.1.1.2.4.2.5,0s.2-.4,0-.5c0,0,0,0,0,0-3.7-4.6-3-11.4,1.6-15.1.7-.6,1.4-1,2.3-1.4-4.8,4.2-5.3,11.4-1.1,16.2.5.6,1.1,1.2,1.8,1.7.2.1.4,0,.5,0s0-.4,0-.5c-4.8-3.5-5.7-10.3-2.2-15,.5-.7,1.1-1.4,1.8-1.9-3.6,5.2-2.3,12.4,3,15.9.7.5,1.4.9,2.2,1.2.2,0,.4,0,.5-.2,0-.2,0-.4-.2-.5h0c-5.5-2.2-8.1-8.5-5.9-14,.3-.8.8-1.6,1.3-2.3-2.2,5.9.9,12.5,6.8,14.7.8.3,1.6.5,2.4.6,0,0,0,0,0,0,.2,0,.4-.2.4-.4,0-.2-.1-.3-.3-.4-5.9-.8-10-6.2-9.2-12.1.1-.9.4-1.7.7-2.6-.6,6.3,4,11.9,10.3,12.5.8,0,1.6,0,2.4,0,.2,0,.4-.2.3-.4,0-.2-.2-.4-.4-.3h0c-4.1.5-8.1-1.4-10.3-4.9-1.4-2.1-1.9-4.7-1.6-7.2,1,6.3,6.8,10.6,13.1,9.6.8-.1,1.6-.3,2.4-.6.2,0,.3-.3.2-.5s-.3-.3-.5-.2h0c-5.5,2.1-11.7-.6-13.9-6.2-.3-.8-.5-1.7-.6-2.6,1.8,4.2,5.9,7,10.5,7,.3,0,.5,0,.8,0,2.1-.1,4.2-.9,5.9-2.1.2-.1.2-.4,0-.5-.1-.2-.3-.2-.5,0-4.8,3.4-11.5,2.3-15-2.5-.5-.7-.9-1.5-1.3-2.3,3.9,5,11.1,6,16.1,2.1.6-.5,1.2-1.1,1.8-1.7.1-.2.1-.4,0-.5M26.5,25.5c0,.1-.1.2-.2.3-.1,0-.2.2-.3.3-.1,0-.2.1-.3.2-.1,0-.3,0-.4,0-.1,0-.3,0-.4,0-.1,0-.2,0-.4-.1-.1,0-.2-.1-.3-.2,0,0-.2-.2-.3-.3,0-.1-.1-.2-.2-.3,0-.1,0-.2-.1-.4,0-.1,0-.3,0-.4,0-.1,0-.2,0-.4,0-.1.1-.2.2-.3,0,0,.2-.2.3-.3.1,0,.2-.1.3-.2.1,0,.2,0,.4-.1.1,0,.3,0,.4,0,.1,0,.3,0,.4,0,.1,0,.2.1.4.2.1,0,.2.2.3.2,0,.1.2.2.2.3,0,.1.1.2.2.4,0,.1,0,.3,0,.4,0,.1,0,.3,0,.4,0,.1,0,.2-.1.4"/>
  </g>
</svg>