<?xml version="1.0" encoding="UTF-8"?>
<svg id="Capa_1" xmlns="http://www.w3.org/2000/svg" version="1.1" viewBox="0 0 387.5 387.6">
  <!-- Generator: Adobe Illustrator 29.4.0, SVG Export Plug-In . SVG Version: 2.1.0 Build 152)  -->
  <defs>
    <style>
      .st0 {
        fill: none;
        stroke: #e8b71a;
        stroke-miterlimit: 10;
      }
    </style>
  </defs>
  <g id="Grupo_6">
    <path id="Trazado_17" class="st0" d="M383.5,209.2c-1.4-1.2-3.6-1-4.8.4,0,0,0,0,0,0-35.1,41.5-97.2,46.7-138.8,11.6-6.2-5.3-11.8-11.3-16.5-18,45.8,35.8,111.9,27.8,147.8-18,4.6-5.9,8.6-12.3,11.9-19.1.8-1.7.1-3.7-1.6-4.6-1.7-.8-3.7-.1-4.6,1.6-23.7,49-82.6,69.4-131.5,45.8-7.4-3.6-14.2-8-20.5-13.3,13.3,5.8,27.6,8.8,42.1,8.8,8.9,0,17.8-1.1,26.4-3.3,39.1-10,69-41.6,77-81.1.4-1.9-.8-3.7-2.7-4-1.9-.4-3.7.8-4,2.7-10.8,53.3-62.7,87.8-116,77-8-1.6-15.8-4.2-23.2-7.8,44.1,7.2,87.9-14.3,109.3-53.5,9.3-17.1,13.7-36.5,12.7-56,0-1.9-1.7-3.3-3.6-3.2s-3.3,1.7-3.2,3.6c2.8,54.3-38.9,100.6-93.2,103.5-8.2.4-16.3-.2-24.4-1.8,57.9-5.2,100.6-56.4,95.4-114.3-.7-7.5-2.1-14.9-4.4-22.1-.5-1.8-2.4-2.8-4.2-2.3s-2.8,2.4-2.3,4.2c0,0,0,0,0,.1,16.2,51.9-12.7,107.1-64.6,123.4-7.8,2.4-15.9,3.9-24,4.3,54.8-19.5,83.4-79.6,64-134.4-2.5-7.1-5.8-13.9-9.7-20.3-1-1.6-3.1-2.1-4.7-1.1s-2.1,3.1-1.1,4.7c28.6,46.2,14.4,106.9-31.8,135.6-6.9,4.3-14.4,7.7-22.2,10.2,48.2-32.5,61-97.9,28.6-146.1-4.2-6.2-9.1-12-14.5-17.2-1.4-1.3-3.5-1.2-4.8.2-1.3,1.4-1.2,3.5,0,4.8,39.2,37.7,40.5,100,2.9,139.2-5.7,5.9-12,11.1-19,15.4,38.6-43.4,34.8-110-8.7-148.6-5.6-5-11.8-9.4-18.3-13.1-1.6-.9-3.7-.3-4.7,1.3-.9,1.6-.3,3.7,1.3,4.7h0c47.4,26.7,64.1,86.8,37.4,134.1-4,7.1-8.9,13.7-14.5,19.6,26.6-51.7,6.3-115.2-45.4-141.8-6.7-3.4-13.7-6.2-21-8.1-1.8-.5-3.7.6-4.2,2.4-.5,1.8.6,3.7,2.4,4.2,52.5,14.1,83.7,68.1,69.6,120.6-2.1,7.9-5.2,15.5-9.2,22.6,12.9-56.7-22.5-113.1-79.2-126.1-7.3-1.7-14.8-2.6-22.4-2.6h0c-1.9,0-3.4,1.5-3.4,3.4,0,1.9,1.5,3.4,3.4,3.4h0c54.4.6,98,45.1,97.4,99.5,0,8.2-1.2,16.3-3.3,24.2-1.6-58.1-49.9-104-108.1-102.4-7.5.2-15,1.2-22.3,3-1.8.4-3,2.3-2.5,4.1s2.3,3,4.1,2.5h0c52.8-13,106.1,19.4,119.1,72.2,1.9,7.9,2.9,16.1,2.8,24.3-16-55.9-74.2-88.3-130.1-72.3-7.2,2.1-14.2,4.9-20.9,8.5-1.7.9-2.3,2.9-1.5,4.6.9,1.7,2.9,2.3,4.6,1.5,0,0,0,0,.1,0,47.9-25.7,107.6-7.6,133.3,40.3,3.9,7.2,6.8,14.9,8.8,22.8-29.4-50.2-93.9-67-144-37.7-6.5,3.8-12.6,8.3-18.1,13.4-1.4,1.3-1.4,3.5-.2,4.8,1.3,1.4,3.4,1.4,4.8.2,40-36.8,102.3-34.2,139.1,5.9,5.5,6,10.3,12.7,14.2,19.9-40.9-41.3-107.6-41.6-148.9-.7-5.3,5.3-10.1,11.1-14.2,17.5-1,1.6-.5,3.7,1.1,4.7,1.6,1,3.6.5,4.6-1,29.6-45.6,90.6-58.5,136.2-28.9,6.9,4.5,13.1,9.7,18.7,15.7-49.9-29.8-114.5-13.5-144.4,36.4-3.9,6.5-7,13.3-9.4,20.4-.6,1.8.4,3.7,2.1,4.3.4.1.7.2,1.1.2,1.5,0,2.8-.9,3.2-2.3,12.2-35.7,43.5-61.4,80.9-66.3,23-3,46.3,2.3,65.8,15-55.8-16.5-114.3,15.4-130.8,71.1-2.1,7.2-3.5,14.6-4,22.1-.1,1.9,1.3,3.5,3.2,3.7,0,0,0,0,0,0,0,0,.2,0,.3,0,1.8,0,3.3-1.4,3.4-3.2,4-54.2,51.2-95,105.4-91,8.1.6,16.2,2.2,23.9,4.8-58.1-2.1-106.9,43.3-109,101.4-.3,7.5.3,15,1.6,22.4.3,1.9,2.1,3.1,3.9,2.8,1.9-.3,3.1-2.1,2.8-3.9,0,0,0,0,0,0-9.6-53.5,26-104.7,79.5-114.3,8-1.4,16.2-1.9,24.4-1.3-56.8,12.4-92.8,68.5-80.4,125.3,1.6,7.3,4,14.5,7.1,21.3.8,1.7,2.8,2.5,4.5,1.7,1.7-.8,2.5-2.8,1.7-4.5-22.6-49.5-.9-107.9,48.6-130.5,7.4-3.4,15.3-5.9,23.3-7.3-51.9,26.2-72.8,89.5-46.7,141.4,3.4,6.7,7.5,13.1,12.2,18.9,1.2,1.5,3.3,1.7,4.8.5s1.7-3.3.5-4.8h0c-34.2-42.3-27.7-104.3,14.6-138.5,6.4-5.1,13.3-9.5,20.7-12.9-43.8,38.2-48.3,104.8-10,148.5,4.9,5.7,10.5,10.8,16.5,15.3,1.5,1.1,3.7.8,4.8-.7,1.1-1.5.8-3.7-.7-4.8-43.6-32.4-52.7-94.1-20.3-137.8,4.9-6.6,10.5-12.5,16.9-17.6-32.9,47.9-20.7,113.5,27.2,146.4,6.2,4.3,12.8,7.8,19.8,10.7,1.7.7,3.7,0,4.5-1.8.7-1.7,0-3.7-1.8-4.5,0,0,0,0,0,0-50.3-20.6-74.5-78-53.9-128.4,3.1-7.6,7.1-14.7,12-21.3-19.9,54.6,8.2,115.1,62.8,135,7.1,2.6,14.4,4.4,21.8,5.4,1.9.2,3.6-1.1,3.8-3,.2-1.8-1-3.5-2.9-3.8-53.9-7.4-91.6-57.1-84.2-110.9,1.1-8.1,3.2-16,6.3-23.6-5.7,57.9,36.6,109.4,94.4,115.1,7.5.7,15,.7,22.4-.2,1.9-.2,3.2-1.9,3-3.8s-1.9-3.2-3.8-3c-54,6.2-102.9-32.5-109.1-86.5-.9-8.1-.9-16.3.2-24.4,8.8,57.5,62.6,96.9,120.1,88,7.4-1.1,14.7-3.1,21.7-5.8,1.8-.7,2.6-2.6,2-4.4-.7-1.8-2.6-2.6-4.4-2h0c-50.8,19.5-107.7-5.9-127.2-56.7-2.9-7.6-4.9-15.6-5.9-23.7,16.6,38.7,54.6,63.8,96.7,63.9,2.3,0,4.7,0,7-.2,19.5-1.3,38.2-8,54.1-19.2,1.6-1.1,1.9-3.2.9-4.8-1.1-1.6-3.2-1.9-4.8-.9,0,0,0,0,0,0-44.3,31.5-105.8,21.1-137.3-23.3-4.7-6.7-8.6-13.9-11.6-21.5,35.4,46.1,101.5,54.8,147.6,19.3,6-4.6,11.4-9.8,16.3-15.5,1.2-1.4,1-3.6-.4-4.8,0,0,0,0,0,0ZM206.7,199.9c-.7,1-1.3,1.9-2,2.9-.9.8-1.8,1.5-2.6,2.3-1.1.5-2.1,1-3.1,1.6-1.2.2-2.3.5-3.4.8-1.2,0-2.3,0-3.5-.1-1.1-.4-2.3-.7-3.4-1-1-.6-2-1.2-3-1.8-.8-.8-1.6-1.7-2.5-2.5-.6-1-1.2-2-1.8-3-.3-1.1-.6-2.3-1-3.4,0-1.2,0-2.3-.1-3.5.3-1.1.5-2.3.8-3.4.6-1,1.1-2.1,1.6-3.1.8-.9,1.6-1.7,2.3-2.6,1-.6,2-1.3,2.9-2,1.1-.4,2.2-.8,3.3-1.2,1.2,0,2.3-.2,3.5-.3,1.2.2,2.3.4,3.5.5,1.1.5,2.1,1,3.2,1.4.9.7,1.9,1.5,2.8,2.2.7.9,1.4,1.9,2.2,2.8.4,1.1.9,2.2,1.4,3.2.2,1.2.3,2.3.5,3.5-.1,1.2-.2,2.3-.3,3.5-.4,1.1-.8,2.2-1.2,3.3Z"/>
  </g>
</svg>