<?xml version="1.0" encoding="UTF-8"?>
<svg id="Capa_1" xmlns="http://www.w3.org/2000/svg" version="1.1" viewBox="0 0 380 331.1">
  <!-- Generator: Adobe Illustrator 29.4.0, SVG Export Plug-In . SVG Version: 2.1.0 Build 152)  -->
  <defs>
    <style>
      .st0 {
        fill: #fff;
      }
    </style>
  </defs>
  <path id="Trazado_28" class="st0" d="M317.7,198.7c-1-.8-2.4-.7-3.2.3-23.6,28-65.5,31.5-93.4,7.8-4.2-3.6-7.9-7.6-11.1-12.1,30.8,24.1,75.4,18.7,99.5-12.1,3.1-4,5.8-8.3,8-12.9.6-1.1.2-2.5-1-3.1-1.1-.6-2.5-.2-3.1,1,0,0,0,.1,0,.2-15.9,33-55.6,46.7-88.5,30.8-4.9-2.4-9.6-5.4-13.8-8.9,8.9,3.9,18.6,6,28.3,6,6,0,12-.8,17.8-2.3,26.3-6.8,46.5-28,51.8-54.6.3-1.2-.5-2.5-1.7-2.7-1.2-.3-2.5.5-2.7,1.7,0,0,0,0,0,0-7.2,35.9-42.2,59.1-78.1,51.9-5.4-1.1-10.6-2.8-15.6-5.2,38.6,6.3,75-19.9,81.4-58.5.8-5,1.1-10.1.8-15.1,0-1.3-1.1-2.3-2.4-2.2-1.3,0-2.3,1.1-2.2,2.4,0,0,0,0,0,0,1.9,36.6-26.2,67.7-62.7,69.6-5.5.3-11-.1-16.4-1.2,39-3.5,67.7-38,64.2-76.9-.5-5-1.4-10-3-14.8-.4-1.2-1.7-1.8-2.9-1.4-1.2.4-1.8,1.6-1.5,2.8,7.5,24.2.6,50.7-17.9,68.1-11.4,10.7-26.2,17.1-41.8,17.9,36.9-13.1,56.2-53.6,43.1-90.5-1.7-4.8-3.9-9.3-6.6-13.6-.7-1.1-2.1-1.4-3.2-.7-1,.7-1.3,2-.7,3.1,19.3,31.1,9.7,72-21.4,91.3-4.7,2.9-9.7,5.2-14.9,6.9,32.5-21.9,41.1-65.9,19.2-98.4-2.8-4.2-6.1-8.1-9.7-11.6-.9-.9-2.4-.8-3.2.2-.8.9-.8,2.3,0,3.2,26.4,25.3,27.3,67.3,1.9,93.7-3.8,4-8.1,7.4-12.8,10.4,26-29.2,23.4-74-5.8-100.1-3.8-3.4-7.9-6.3-12.3-8.8-1.1-.7-2.5-.4-3.2.7-.7,1.1-.4,2.5.7,3.2,0,0,.1,0,.2.1,31.9,18,43.2,58.4,25.2,90.3-2.7,4.8-6,9.2-9.8,13.2,17.9-34.8,4.3-77.5-30.5-95.5-4.5-2.3-9.2-4.1-14.1-5.5-1.2-.3-2.5.4-2.8,1.7-.3,1.2.4,2.4,1.6,2.8,35.4,9.5,56.3,45.8,46.8,81.2-1.4,5.3-3.5,10.4-6.2,15.2,8.7-38.2-15.2-76.2-53.3-84.9-4.9-1.1-10-1.7-15-1.8h0c-1.3,0-2.3,1-2.3,2.3s1,2.3,2.3,2.3c36.6.4,66,30.4,65.6,67,0,5.5-.8,11-2.2,16.3-1-39.1-33.6-70-72.7-68.9-5.1.1-10.1.8-15,2-1.2.3-1.9,1.6-1.6,2.8.3,1.2,1.5,1.9,2.7,1.6,35.6-8.7,71.4,13,80.2,48.6,1.3,5.3,2,10.8,1.9,16.3-10.7-37.6-50-59.4-87.6-48.7-4.9,1.4-9.6,3.3-14,5.7-1.1.6-1.5,2-.9,3.1.6,1.1,2,1.5,3.1.9,32.3-17.3,72.4-5.1,89.7,27.1,2.6,4.8,4.6,10,5.9,15.3-19.8-33.8-63.2-45.1-97-25.4-4.4,2.6-8.4,5.6-12.2,9-1,.8-1.1,2.3-.2,3.2.8,1,2.3,1.1,3.2.2,0,0,0,0,.1-.1,27-24.8,68.9-23,93.7,4,3.7,4,6.9,8.5,9.5,13.4-27.5-27.8-72.4-28-100.2-.5-3.6,3.6-6.8,7.5-9.6,11.8-.7,1.1-.3,2.5.8,3.2,1,.6,2.4.3,3.1-.7,19.9-30.7,61-39.4,91.7-19.5,4.6,3,8.8,6.6,12.6,10.6-33.6-20.1-77.1-9.1-97.2,24.5-2.6,4.3-4.7,9-6.3,13.8-.4,1.2.3,2.5,1.5,2.9,1.2.4,2.4-.3,2.9-1.4,11.7-34.7,49.3-53.3,84-41.7,5.2,1.8,10.2,4.2,14.8,7.1-37.5-11.1-77,10.3-88,47.9-1.4,4.9-2.3,9.9-2.7,14.9,0,1.3.9,2.4,2.1,2.5h.2c1.2,0,2.2-.9,2.3-2.1,2.7-36.5,34.5-63.9,71-61.2,5.5.4,10.9,1.5,16.1,3.2-39.1-1.4-72,29.2-73.4,68.3-.2,5.1.2,10.1,1.1,15.1.2,1.3,1.4,2.1,2.6,1.9,1.3-.2,2.1-1.4,1.9-2.6,0,0,0,0,0-.1-6.5-36,17.5-70.5,53.5-77,5.4-1,10.9-1.3,16.4-.9-38.2,8.4-62.5,46.1-54.1,84.4,1.1,4.9,2.7,9.8,4.8,14.4.5,1.2,1.9,1.7,3,1.2,1.2-.5,1.7-1.9,1.2-3,0,0,0,0,0,0-15.2-33.3-.6-72.6,32.7-87.9,5-2.3,10.3-3.9,15.7-4.9-35,17.6-49,60.2-31.4,95.2,2.3,4.5,5,8.8,8.2,12.7.8,1,2.2,1.2,3.2.4,1-.8,1.2-2.2.4-3.2,0,0,0,0,0,0-23-28.5-18.6-70.2,9.8-93.2,4.3-3.5,9-6.4,14-8.7-29.5,25.7-32.5,70.5-6.8,100,3.3,3.8,7.1,7.3,11.1,10.3,1,.8,2.4.6,3.2-.4.8-1,.6-2.4-.4-3.2,0,0,0,0-.1-.1-29.4-21.8-35.5-63.4-13.7-92.7,3.3-4.4,7.1-8.4,11.4-11.9-22.1,32.3-13.9,76.4,18.3,98.5,4.2,2.9,8.6,5.3,13.3,7.2,1.2.4,2.5-.2,3-1.3.4-1.1-.1-2.4-1.2-2.9-33.9-13.8-50.1-52.5-36.3-86.4,2.1-5.1,4.8-9.9,8.1-14.3-13.4,36.8,5.5,77.4,42.3,90.9,4.8,1.7,9.7,3,14.7,3.6.1,0,.2,0,.3,0,1.3,0,2.3-1.1,2.3-2.3,0-1.1-.8-2.1-2-2.2-36.3-5-61.6-38.4-56.7-74.7.7-5.4,2.2-10.8,4.2-15.9-3.9,39,24.6,73.7,63.6,77.5,5,.5,10.1.5,15.1-.1,1.3-.1,2.2-1.2,2.1-2.5-.1-1.3-1.2-2.2-2.5-2.1,0,0-.1,0-.2,0-36.4,4.2-69.3-21.9-73.5-58.2-.6-5.5-.6-11,.2-16.5,6,38.7,42.2,65.2,80.8,59.3,5-.8,9.9-2.1,14.6-3.9,1.2-.5,1.7-1.8,1.2-3-.5-1.1-1.7-1.7-2.9-1.3-34.2,13.1-72.5-4-85.6-38.2-2-5.1-3.3-10.5-3.9-16,11.2,26.1,36.8,43,65.1,43,1.6,0,3.1,0,4.7-.2,13.1-.9,25.7-5.4,36.4-13,1-.8,1.2-2.2.4-3.2-.7-.9-2.1-1.2-3.1-.5-29.8,21.2-71.2,14.2-92.4-15.7-3.2-4.5-5.8-9.3-7.8-14.5,23.8,31,68.3,36.9,99.4,13,4-3.1,7.7-6.6,11-10.5.8-1,.7-2.4-.3-3.2M198.7,192.4c-.5.6-.9,1.3-1.3,2-.6.5-1.2,1-1.8,1.6-.7.3-1.4.7-2.1,1.1-.8.2-1.5.3-2.3.5-.8,0-1.6,0-2.4,0-.8-.2-1.5-.5-2.3-.7-.7-.4-1.4-.8-2-1.2-.6-.6-1.1-1.1-1.7-1.7-.4-.7-.8-1.4-1.2-2-.2-.8-.4-1.5-.7-2.3,0-.8,0-1.6,0-2.4.2-.8.4-1.5.5-2.3.4-.7.7-1.4,1.1-2.1.5-.6,1.1-1.2,1.6-1.8.7-.4,1.3-.9,2-1.3.8-.3,1.5-.5,2.3-.8.8,0,1.6-.1,2.3-.2.8.1,1.6.3,2.4.4.7.3,1.4.6,2.2.9.6.5,1.2,1,1.9,1.5.5.6,1,1.3,1.5,1.9.3.7.6,1.5.9,2.2.1.8.2,1.6.4,2.3,0,.8-.2,1.6-.2,2.4-.3.7-.6,1.5-.8,2.2"/>
  <path id="Trazado_29" class="st0" d="M15.8,181.1c0-.4.2-.8.4-1.1.2-.3.5-.6.8-.8l14.9-7.7-.3,1.9-13-10.7c-.6-.5-.9-1.2-.8-1.9,0-.6.3-1.2.8-1.6.5-.4,1.1-.6,1.7-.5l21.7,2.2c1.2,0,2.2,1.1,2.1,2.4,0,0,0,.1,0,.2,0,.6-.3,1.2-.8,1.6-.5.4-1.1.6-1.7.5l-17.7-1.8.5-1.4,10.9,8.8c.3.3.5.6.6.9.2.3.2.7.2,1.1,0,.4-.1.7-.4,1-.2.3-.5.6-.8.8l-12,6-1.9-1.2,19,1.9c.6,0,1.2.3,1.6.8.4.4.6,1,.5,1.6,0,.6-.3,1.1-.8,1.5-.5.4-1.1.5-1.7.4l-21.7-2.2c-.6,0-1.2-.4-1.5-.9-.4-.5-.6-1.1-.5-1.7"/>
  <path id="Trazado_30" class="st0" d="M55.6,126.7c-.3.6-.8,1.1-1.5,1.4-.6.3-1.3.3-1.8,0l-19.3-10.1c-1.1-.6-1.6-1.9-1-3,0,0,0,0,0,0l5-9.6c.6-1.2,1.5-2.1,2.6-2.8,1.2-.7,2.5-1.1,3.8-1.1,1.5,0,2.9.3,4.2,1,.8.4,1.6,1.1,2.2,1.8.6.8,1.1,1.6,1.4,2.5.3.9.5,1.8.5,2.8l-.8-.4c1.2-.8,2.6-1.2,4-1.1.7,0,1.3.2,1.9.5.6.2,1.1.4,1.6.6.4.2.8.3,1.2.4.3,0,.7,0,1-.2.5-.3,1.1-.4,1.7-.3.6.1,1.1.6,1.3,1.1.2.4.2.8,0,1.2-.1.4-.3.8-.6,1.1-.2.3-.5.6-.8.8-.5.3-1,.5-1.6.6-.7.2-1.5.2-2.2,0-1.1-.2-2.1-.6-3-1.1-.4-.2-.8-.3-1.2-.3-.8,0-1.6.2-2.2.8-.4.4-.7.8-.9,1.2l-3.5,6.8-.5-.9,7.3,3.8c.5.3,1,.7,1.2,1.2.2.5.2,1.1,0,1.6M44.3,119.1l4.1-7.8c.2-.5.2-1,0-1.5-.2-.6-.6-1.2-1-1.7-.5-.6-1.2-1.1-1.9-1.5-.9-.5-1.9-.7-2.9-.5-.8,0-1.5.5-1.9,1.2l-4,7.7-.9-1,9.5,4.9h-1Z"/>
  <path id="Trazado_31" class="st0" d="M78.4,91.6c-.6.9-1.9,1.2-2.8.5-.1,0-.2-.2-.4-.3l-.5-.4c-.9-.6-1.2-1.9-.5-2.8,0-.1.2-.2.3-.4l.3-.4c.6-.9,1.9-1.2,2.8-.5.1,0,.2.2.4.3l.5.4c.9.6,1.2,1.9.5,2.8,0,.1-.2.2-.3.4l-.3.4Z"/>
  <path id="Trazado_32" class="st0" d="M98,42.8c.2,0,.4,0,.6.2.1.2.2.4.2.6,0,.2,0,.4-.2.5-.1.1-.3.2-.5.2-1.3,0-2.6.2-3.8.6-1.3.4-2.5,1-3.6,1.8-1.3.9-2.3,2-3.1,3.4-.8,1.3-1.3,2.7-1.5,4.2-.2,1.5-.1,3.1.2,4.6.9,3.3,2.9,6.1,5.8,7.9,1.3.8,2.8,1.4,4.3,1.7,1.5.3,3,.2,4.4-.1,1.5-.4,2.9-1,4.2-1.9,1.1-.8,2.1-1.7,2.8-2.8.7-1,1.3-2.2,1.8-3.4,0-.2.2-.4.4-.5.2,0,.4-.1.6,0,.2,0,.4.2.5.4,0,.2.1.4,0,.6-.3.8-.7,1.6-1.1,2.3-.5.9-1.1,1.7-1.8,2.5-.7.8-1.5,1.5-2.3,2.1-1.4,1-3,1.8-4.7,2.2-1.7.4-3.4.4-5.1.2-1.7-.3-3.4-.9-4.8-1.8-3.2-2-5.4-5.1-6.4-8.8-.4-1.7-.5-3.4-.2-5.1.3-1.7.8-3.3,1.7-4.8.9-1.5,2.1-2.8,3.5-3.8,1.2-.9,2.6-1.6,4-2.1,1.4-.5,2.8-.7,4.2-.7"/>
  <path id="Trazado_33" class="st0" d="M129.9,24.8l13.5-4.4c.4-.1.8,0,1,.5,0,.2,0,.4,0,.6,0,.2-.2.3-.4.4l-13.1,4.3.2-.7,3.7,11.1-.6-.4,11.5-3.8c.4-.1.8,0,1,.5,0,.2,0,.4,0,.6,0,.2-.3.3-.4.4l-11.5,3.8.2-.5,3.7,11.4h-.2c0-.1,12.9-4.4,12.9-4.4.2,0,.4,0,.6,0,.2,0,.3.2.4.4,0,.2,0,.4,0,.6,0,.2-.2.3-.4.4l-13.5,4.4c-.4.1-.8,0-1-.5l-7.8-23.6c-.1-.4,0-.8.5-1"/>
  <path id="Trazado_34" class="st0" d="M181,40.6c-.4,0-.8-.3-.8-.7,0,0,0,0,0,0l-.2-24.9c0-.2,0-.4.2-.5.1-.1.3-.2.5-.2h10c1.4-.1,2.7.2,3.9.8,2.2,1.1,3.6,3.4,3.6,5.9,0,1.1-.2,2.1-.6,3.1-.4.9-1,1.7-1.7,2.3-.7.6-1.6,1.1-2.5,1.4l-1.7-.3c1,0,2,.3,2.9.7.9.5,1.7,1.3,2.2,2.2.6,1.1.9,2.4.9,3.6,0,.9,0,1.9.2,2.8,0,.5.2,1,.5,1.4.2.3.4.5.7.7.1,0,.3.2.3.4,0,.2,0,.4,0,.5,0,.1-.1.3-.2.4-.1,0-.2.1-.4.2-.1,0-.3,0-.4,0-.4-.2-.8-.5-1-.9-.4-.5-.7-1.2-.9-1.8-.3-1.2-.4-2.3-.4-3.5,0-1-.2-1.9-.6-2.8-.3-.6-.8-1.2-1.4-1.6-.6-.4-1.2-.6-1.8-.7-.6-.1-1.2-.2-1.8-.2h-9.2c0,0,.3-.4.3-.4v11.5c.1.2,0,.4-.1.5-.1.2-.4.2-.6.2M181.3,27.3h9.7c1-.2,1.9-.5,2.8-1,.9-.5,1.6-1.3,2.1-2.1.5-1,.8-2.1.8-3.2,0-1.5-.6-2.8-1.7-3.8-1.2-1.1-2.8-1.6-4.4-1.5h-9.1c0,0,.2-.2.2-.2v12.3c0,0-.3-.4-.3-.4Z"/>
  <path id="Trazado_35" class="st0" d="M244.8,24.9l-16.6,19.7c0,.1-.2.2-.4.3-.1,0-.3,0-.4,0-.4,0-.6-.5-.5-.9,0,0,0,0,0,0,0-.1,0-.2.2-.3l17.5-20.5c0-.1.2-.2.4-.3.1,0,.3,0,.4,0,.2,0,.3.1.4.3,0,.1.1.3.1.4l1.7,26.9c0,.1,0,.2,0,.3,0,.2-.2.4-.4.4-.2,0-.4,0-.6,0-.2,0-.3-.1-.4-.3-.1-.1-.2-.3-.2-.4l-1.7-26.1.4.5ZM233,38.2l1-1.3,11.6,3.9v1.5c-.1,0-12.6-4.1-12.6-4.1ZM246,21.4c-.1,0-.2-.1-.3-.3,0-.1,0-.2,0-.3,0-.1,0-.2.2-.3,0,0,.2-.1.3-.2l4-1.3c.1,0,.3,0,.4,0,.2,0,.3,0,.5,0,.2,0,.4.2.5.5,0,.2,0,.4,0,.7,0,.2-.2.3-.3.5-.1.1-.3.2-.5.2l-4,.5c-.1,0-.2,0-.4,0-.1,0-.3,0-.4,0"/>
  <path id="Trazado_36" class="st0" d="M293,47.3c0,0,.2.2.2.3,0,.1,0,.3,0,.4l-2,19.3-.6-.5,18.6-5.5c.3,0,.6,0,.8.2.1.1.2.3.2.5,0,.2,0,.4-.2.5l-15.9,19.1c-.1.2-.3.2-.5.2-.2,0-.4,0-.6-.2-.2-.1-.3-.3-.3-.5,0-.2,0-.4.2-.6l14.8-17.8.3.3-17.6,5.3c0,0-.2,0-.3,0-.1,0-.2,0-.3-.1,0,0-.2-.2-.2-.3,0-.1,0-.2,0-.3l2-18.7.5.4-15,18.1c-.1.2-.3.2-.5.3-.2,0-.4,0-.6-.2-.2-.1-.3-.3-.3-.5,0-.2,0-.4.2-.5l15.9-19.1c.1-.1.3-.2.5-.3.2,0,.4,0,.6.2"/>
  <path id="Trazado_37" class="st0" d="M312.6,104.1c-.2.1-.4.1-.6.1-.2,0-.4-.1-.5-.3-.1-.2-.2-.4-.1-.6,0-.2.2-.4.3-.5l20.3-14.2c.2-.1.4-.2.6-.1.4,0,.7.5.6.9,0,.2-.2.4-.3.5l-20.4,14.2Z"/>
  <path id="Trazado_38" class="st0" d="M353.9,134.5c0,.2-.2.4-.3.5-.2,0-.4.1-.6,0-.2,0-.4-.2-.4-.3,0-.2-.1-.4,0-.6.3-1.3.4-2.6.3-3.8,0-1.4-.4-2.7-.9-3.9-.6-1.4-1.4-2.7-2.5-3.9-1.1-1.1-2.3-1.9-3.7-2.5-1.4-.6-3-.9-4.5-.9-3.4,0-6.6,1.4-9.1,3.6-1.1,1.1-2,2.3-2.6,3.7-.6,1.4-.9,2.8-1,4.3,0,1.5.3,3.1.9,4.5.5,1.3,1.2,2.4,2.1,3.4.8,1,1.8,1.8,2.9,2.6.2.1.3.3.3.5,0,.2,0,.4-.1.6-.1.2-.3.3-.5.4-.2,0-.4,0-.6,0-.7-.5-1.4-1-2-1.7-.7-.7-1.4-1.5-2-2.4-.6-.9-1.1-1.8-1.5-2.7-.7-1.6-1-3.4-.9-5.1,0-1.7.4-3.4,1.1-4.9.7-1.6,1.7-3,2.9-4.2,2.7-2.6,6.3-4,10-4,1.7,0,3.4.4,5,1,1.6.7,3,1.6,4.2,2.8,1.2,1.2,2.2,2.7,2.8,4.3.6,1.4.9,2.9,1,4.4.1,1.4,0,2.9-.3,4.3"/>
  <path id="Trazado_39" class="st0" d="M362.2,179.7l-24.8-7.1c-.1,0-.3-.1-.4-.2,0-.1-.2-.3-.2-.4,0-.2,0-.4.1-.6.1-.1.3-.2.4-.3.1,0,.3,0,.4,0l25.8,7.6c.2,0,.3.1.4.2,0,.1.1.3.1.4,0,.2,0,.3,0,.5,0,.1-.2.2-.3.3l-23.8,12.6c0,0-.2,0-.3,0-.2,0-.4,0-.5-.2-.1-.1-.2-.3-.2-.5,0-.2,0-.3,0-.5,0-.1.2-.3.3-.3l23.2-12.2-.2.6ZM345.3,174.4l1.6.4,1.2,12.2-1.5.5-1.3-13.1Z"/>
</svg>