<?xml version="1.0" encoding="UTF-8"?>
<svg id="Capa_1" xmlns="http://www.w3.org/2000/svg" version="1.1" viewBox="0 0 39 39">
  <!-- Generator: Adobe Illustrator 29.4.0, SVG Export Plug-In . SVG Version: 2.1.0 Build 152)  -->
  <defs>
    <style>
      .st0 {
        fill: #fff;
      }
    </style>
  </defs>
  <path id="Trazado_20" class="st0" d="M19.5.5C9,.5.5,9,.5,19.5c0,10.5,8.5,19,19,19,10.5,0,19-8.5,19-19S30,.5,19.5.5s0,0,0,0M11,10.9h17c.2,0,.5,0,.7,0,0,0,0,0,0,0l-7.6,8.6c-.7.8-2,.9-2.8.2,0,0-.1-.1-.2-.2l-7.7-8.7c.2,0,.4,0,.7,0M30.6,23.4c0,2.6-2.1,4.6-4.6,4.6h-13c-2.6,0-4.6-2.1-4.6-4.6,0,0,0,0,0,0v-9.9c0-.4,0-.7.2-1l7.7,8.7c1.6,1.8,4.3,2,6.1.4.1-.1.3-.2.4-.4l7.6-8.6s0,0,0-.1c.1.3.2.7.2,1v9.9Z"/>
</svg>