<?xml version="1.0" encoding="UTF-8"?>
<svg id="Capa_1" xmlns="http://www.w3.org/2000/svg" version="1.1" viewBox="0 0 39 39">
  <!-- Generator: Adobe Illustrator 29.4.0, SVG Export Plug-In . SVG Version: 2.1.0 Build 152)  -->
  <defs>
    <style>
      .st0 {
        fill: #fff;
      }
    </style>
  </defs>
  <path id="Trazado_21" class="st0" d="M19.9,9.6c-5.1,0-9.2,4.1-9.2,9.1,0,1.7.5,3.3,1.3,4.8l.2.4-.9,3.4,3.4-.9.4.2c4.4,2.6,10,1.2,12.6-3.2,2.6-4.4,1.2-10-3.2-12.6-1.4-.8-3-1.3-4.7-1.3M25.3,22.2c-.4.8-1.2,1.4-2,1.5-.8,0-1.6,0-2.3-.4-.7-.2-1.3-.5-1.9-.9-1.2-.8-2.3-1.7-3.1-2.9-.3-.4-.5-.7-.7-1.1-.3-.5-.5-1-.7-1.6,0-.2,0-.5,0-.7,0-.9.3-1.7,1-2.3.4-.3.9-.4,1.4-.2.4.4.8.9.9,1.4.2.4.3.8.3,1.3-.1.4-.4.8-.7,1.1-.2.2-.2.4,0,.6.8,1.4,2.1,2.5,3.7,3.1.2.1.4,0,.5-.1.3-.3.5-1,1-1.2.6-.1,1.2,0,1.6.4.4.3,1.2.6,1.3,1.1,0,.3,0,.5,0,.8"/>
  <path id="Trazado_22" class="st0" d="M19.5.5C9,.5.5,9,.5,19.5s8.5,19,19,19,19-8.5,19-19h0C38.5,9,30,.5,19.5.5c0,0,0,0,0,0M19.9,30.1c-1.9,0-3.7-.5-5.4-1.4l-6.2,1.6,1.6-6.1c-3-5.5-1-12.3,4.4-15.4,5.5-3,12.3-1,15.4,4.4,3,5.5,1,12.3-4.4,15.4-1.7.9-3.6,1.4-5.5,1.4"/>
</svg>